<svg xmlns="http://www.w3.org/2000/svg" width="916" height="997" fill="none"><g filter="url(#a)" opacity=".4"><path fill="#96F" fill-rule="evenodd" d="M334.321 268.62c55.962-7.449 94.327 53.863 131.438 96.523 33.627 38.655 71.814 80.72 67.193 131.806-4.419 48.866-58.319 71.706-89.053 109.885-38.096 47.326-49.99 125.528-109.578 136.868-61.979 11.794-117.66-39.34-160.909-85.394-41.764-44.474-84.49-101.83-70.811-161.359 12.86-55.959 90.237-60.669 131.083-100.918 40.062-39.475 44.96-120.001 100.637-127.411Z" clip-rule="evenodd"/></g><g filter="url(#b)" opacity=".4"><path fill="#4D66E5" fill-rule="evenodd" d="M815.996 610.643c.51 69.695-43.155 128.608-90.826 179.272-49.487 52.595-106.528 109.088-178.563 107.03-71.007-2.028-130.787-56.629-168.682-116.95-31.251-49.745-10.353-110.545-11.18-169.352-.85-60.4-38.841-134.32 6.346-174.204 45.335-40.013 113.154 15.877 173.516 15.454 61.283-.43 123.103-49.051 175.956-17.905 59.537 35.086 92.925 107.348 93.433 176.655Z" clip-rule="evenodd"/></g><g filter="url(#c)" opacity=".5"><path fill="#4D66E5" fill-rule="evenodd" d="M392.179 155.608c61.902-1.549 121.25-79.403 174.412-48.263 51.586 30.217 35.918 110.647 32.531 169.481-2.471 42.92-29.341 77.845-48.983 116.276-16.156 31.61-33.692 59.844-55.444 88.043-32.384 41.982-50.327 104.422-102.516 116.733-52.329 12.344-99.124-32.079-145.936-58.124-53.552-29.794-136.809-44.324-145.613-104.085-9.205-62.48 85.176-92.359 107.976-151.396 20.861-54.018-32.41-134.774 15.509-168.36 48.057-33.683 109.014 41.172 168.064 39.695Z" clip-rule="evenodd"/></g><g filter="url(#d)" opacity=".15"><circle cx="332" cy="692" r="146" fill="#fff"/></g><g filter="url(#e)" opacity=".3"><circle cx="457" cy="261" r="105" fill="#F7E16E"/></g><g filter="url(#f)" opacity=".1"><circle cx="291" cy="489" r="105" fill="#F7E16E"/></g><g filter="url(#g)" opacity=".2"><circle cx="646.5" cy="269.5" r="169.5" fill="#CB6AFB"/></g><g filter="url(#h)" opacity=".4"><circle cx="480" cy="778" r="63" fill="#fff"/></g><defs><filter id="a" width="633.334" height="677.42" x="0" y="168" color-interpolation-filters="sRGB" filterUnits="userSpaceOnUse"><feFlood flood-opacity="0" result="BackgroundImageFix"/><feBlend in="SourceGraphic" in2="BackgroundImageFix" result="shape"/><feGaussianBlur result="effect1_foregroundBlur_30_18" stdDeviation="50"/></filter><filter id="b" width="665" height="675" x="251" y="322" color-interpolation-filters="sRGB" filterUnits="userSpaceOnUse"><feFlood flood-opacity="0" result="BackgroundImageFix"/><feBlend in="SourceGraphic" in2="BackgroundImageFix" result="shape"/><feGaussianBlur result="effect1_foregroundBlur_30_18" stdDeviation="50"/></filter><filter id="c" width="704" height="700" x="0" y="0" color-interpolation-filters="sRGB" filterUnits="userSpaceOnUse"><feFlood flood-opacity="0" result="BackgroundImageFix"/><feBlend in="SourceGraphic" in2="BackgroundImageFix" result="shape"/><feGaussianBlur result="effect1_foregroundBlur_30_18" stdDeviation="50"/></filter><filter id="d" width="492" height="492" x="86" y="446" color-interpolation-filters="sRGB" filterUnits="userSpaceOnUse"><feFlood flood-opacity="0" result="BackgroundImageFix"/><feBlend in="SourceGraphic" in2="BackgroundImageFix" result="shape"/><feGaussianBlur result="effect1_foregroundBlur_30_18" stdDeviation="50"/></filter><filter id="e" width="410" height="410" x="252" y="56" color-interpolation-filters="sRGB" filterUnits="userSpaceOnUse"><feFlood flood-opacity="0" result="BackgroundImageFix"/><feBlend in="SourceGraphic" in2="BackgroundImageFix" result="shape"/><feGaussianBlur result="effect1_foregroundBlur_30_18" stdDeviation="50"/></filter><filter id="f" width="410" height="410" x="86" y="284" color-interpolation-filters="sRGB" filterUnits="userSpaceOnUse"><feFlood flood-opacity="0" result="BackgroundImageFix"/><feBlend in="SourceGraphic" in2="BackgroundImageFix" result="shape"/><feGaussianBlur result="effect1_foregroundBlur_30_18" stdDeviation="50"/></filter><filter id="g" width="539" height="539" x="377" y="0" color-interpolation-filters="sRGB" filterUnits="userSpaceOnUse"><feFlood flood-opacity="0" result="BackgroundImageFix"/><feBlend in="SourceGraphic" in2="BackgroundImageFix" result="shape"/><feGaussianBlur result="effect1_foregroundBlur_30_18" stdDeviation="50"/></filter><filter id="h" width="326" height="326" x="317" y="615" color-interpolation-filters="sRGB" filterUnits="userSpaceOnUse"><feFlood flood-opacity="0" result="BackgroundImageFix"/><feBlend in="SourceGraphic" in2="BackgroundImageFix" result="shape"/><feGaussianBlur result="effect1_foregroundBlur_30_18" stdDeviation="50"/></filter></defs></svg>
