<svg width="464" height="685" fill="none" xmlns="http://www.w3.org/2000/svg"><mask id="a" style="mask-type:alpha" maskUnits="userSpaceOnUse" x="0" y="0" width="464" height="685"><path d="M0 3a3 3 0 0 1 3-3h458a3 3 0 0 1 3 3v679a3 3 0 0 1-3 3H3a3 3 0 0 1-3-3V3Z" fill="#fff"/></mask><g mask="url(#a)"><g opacity=".1" filter="url(#b)"><path fill="#fff" d="M88 0h36v685H88z"/></g><g style="mix-blend-mode:overlay" filter="url(#c)"><path d="M464 0 0 685" stroke="#fff" stroke-width="20"/></g><g style="mix-blend-mode:overlay" opacity=".2" filter="url(#d)"><path d="M464 0 0 685" stroke="#fff" stroke-width="10"/></g></g><defs><filter id="b" x="28" y="-60" width="156" height="805" filterUnits="userSpaceOnUse" color-interpolation-filters="sRGB"><feFlood flood-opacity="0" result="BackgroundImageFix"/><feBlend in="SourceGraphic" in2="BackgroundImageFix" result="shape"/><feGaussianBlur stdDeviation="30" result="effect1_foregroundBlur_30_56"/></filter><filter id="c" x="-128.279" y="-125.608" width="720.559" height="936.217" filterUnits="userSpaceOnUse" color-interpolation-filters="sRGB"><feFlood flood-opacity="0" result="BackgroundImageFix"/><feBlend in="SourceGraphic" in2="BackgroundImageFix" result="shape"/><feGaussianBlur stdDeviation="60" result="effect1_foregroundBlur_30_56"/></filter><filter id="d" x="-44.14" y="-42.804" width="552.279" height="770.608" filterUnits="userSpaceOnUse" color-interpolation-filters="sRGB"><feFlood flood-opacity="0" result="BackgroundImageFix"/><feBlend in="SourceGraphic" in2="BackgroundImageFix" result="shape"/><feGaussianBlur stdDeviation="20" result="effect1_foregroundBlur_30_56"/></filter></defs></svg>
